<?xml version="1.0" standalone="no"?>
<!DOCTYPE svg PUBLIC "-//W3C//DTD SVG 20010904//EN"
 "http://www.w3.org/TR/2001/REC-SVG-20010904/DTD/svg10.dtd">
<svg version="1.0" xmlns="http://www.w3.org/2000/svg"
 width="380.000000pt" height="441.000000pt" viewBox="0 0 380.000000 441.000000"
 preserveAspectRatio="xMidYMid meet">

<g transform="translate(0.000000,441.000000) scale(0.100000,-0.100000)"
fill="#000000" stroke="none">
<path d="M1799 3794 c-33 -6 -105 -67 -115 -97 -4 -12 -22 -42 -40 -66 -42
-55 -51 -100 -31 -152 11 -28 12 -39 4 -39 -7 0 -1 -6 12 -13 13 -6 23 -15 22
-20 -1 -4 15 -22 35 -39 29 -25 35 -37 30 -57 -36 -165 -46 -231 -40 -264 4
-27 0 -52 -16 -90 -22 -52 -22 -54 -6 -177 30 -224 43 -306 55 -329 15 -27 4
-43 -42 -62 -18 -7 -50 -25 -72 -40 -32 -21 -57 -28 -123 -34 -45 -4 -85 -11
-88 -16 -3 -5 -15 -9 -27 -9 -90 0 -166 -67 -249 -219 -10 -17 -25 -34 -34
-38 -31 -12 -83 -77 -84 -104 0 -20 -26 -53 -103 -133 -56 -58 -101 -110 -99
-115 2 -5 -9 -29 -23 -52 -21 -32 -29 -39 -36 -28 -7 10 -8 6 -4 -12 4 -17 -1
-41 -13 -66 -11 -22 -33 -77 -47 -124 -15 -46 -37 -101 -48 -121 l-20 -37 26
-54 c35 -71 53 -85 122 -98 55 -10 212 -81 227 -104 4 -5 8 -7 8 -3 0 4 15 -1
33 -12 20 -13 50 -20 80 -20 50 0 152 25 174 42 7 6 20 5 35 -3 21 -11 22 -11
9 4 -12 15 -11 17 4 17 9 0 28 -9 42 -20 23 -18 28 -18 42 -6 14 12 128 63
156 69 10 2 28 -140 20 -161 -3 -10 1 -11 16 -7 15 5 19 4 15 -4 -5 -7 2 -11
16 -11 17 0 19 3 9 9 -10 7 -12 21 -7 57 3 26 8 49 10 51 4 4 69 -14 265 -72
74 -21 134 -34 148 -30 13 3 50 29 81 58 31 29 84 70 117 92 33 21 101 80 150
129 50 50 107 98 127 108 22 10 44 30 54 49 9 18 27 41 40 51 12 10 28 35 34
56 7 20 22 53 35 72 37 58 65 118 64 137 0 15 -2 14 -11 -4 -6 -13 -15 -23
-20 -23 -5 0 -6 5 -2 11 9 15 44 150 44 172 0 30 -17 19 -24 -15 -9 -48 -54
-140 -66 -136 -6 2 -25 39 -43 83 -18 44 -43 95 -56 113 -47 66 -164 144 -258
172 -29 9 -43 19 -43 30 0 28 60 80 130 114 51 24 60 32 42 34 -13 2 -49 -4
-80 -14 -46 -15 -69 -31 -124 -86 -36 -37 -73 -68 -82 -68 -8 0 -23 -10 -33
-23 -13 -16 -29 -23 -59 -23 -56 -2 -81 -18 -105 -69 -12 -25 -43 -67 -70 -94
-27 -27 -49 -53 -49 -58 0 -4 -14 -16 -30 -25 -17 -10 -38 -31 -48 -48 -11
-20 -32 -35 -61 -45 -83 -28 -84 -25 -45 110 35 120 102 259 154 317 44 50 61
58 180 77 67 11 200 69 273 120 23 16 68 52 100 80 39 34 63 48 75 44 22 -8
193 -135 188 -141 -2 -2 -14 2 -26 8 -46 25 -28 -2 62 -92 52 -51 102 -110
112 -131 12 -25 19 -74 23 -145 6 -116 -9 -221 -49 -337 -32 -96 -141 -309
-233 -455 -46 -74 -82 -136 -80 -138 5 -5 80 35 154 82 81 53 204 151 251 202
19 21 6 12 -29 -20 -69 -63 -191 -156 -230 -176 l-23 -12 23 44 c13 23 26 45
29 48 9 9 60 89 60 95 0 3 11 23 25 46 93 147 174 427 175 602 0 107 -19 200
-47 233 -14 16 -43 52 -66 79 -59 70 -145 157 -192 191 -67 49 -87 67 -153
134 l-64 65 5 79 c4 60 10 85 26 105 43 52 56 93 56 173 l0 77 45 11 c98 25
134 44 186 95 38 39 49 56 41 64 -21 21 7 11 33 -11 14 -13 11 -8 -7 10 -27
26 -33 40 -33 75 0 52 -30 119 -67 152 -15 13 -59 41 -98 62 -38 21 -110 73
-160 116 -186 161 -298 215 -460 222 -49 2 -102 1 -116 -1z m218 -58 c133 -35
212 -88 394 -262 113 -107 159 -144 159 -127 0 4 -15 23 -32 42 l-33 34 44
-25 c64 -36 103 -95 109 -161 4 -50 2 -57 -29 -92 -34 -38 -104 -75 -142 -75
-15 0 -9 6 21 20 24 11 55 29 70 41 l27 22 -25 -7 c-14 -4 -43 -9 -65 -12
l-40 -5 45 21 c46 22 90 57 90 72 0 4 -17 -1 -37 -12 -21 -11 -48 -20 -61 -20
-23 0 -23 0 5 24 34 30 27 42 -13 21 -53 -27 -83 -19 -209 56 -66 40 -157 90
-202 111 -88 42 -134 86 -154 145 -6 18 -14 33 -18 33 -11 0 3 -91 18 -118 18
-33 7 -40 -48 -31 -51 8 -103 30 -133 57 -32 28 -19 -6 17 -47 22 -24 33 -45
29 -55 -5 -14 -2 -14 26 -5 57 20 186 6 269 -29 100 -44 212 -115 256 -164 30
-32 35 -45 30 -66 -18 -76 -26 -102 -33 -102 -4 0 -27 21 -52 46 -92 94 -250
148 -428 147 -77 0 -112 3 -109 11 5 15 43 24 112 25 53 0 79 -3 175 -25 18
-4 22 -2 14 6 -22 22 -119 40 -209 39 l-89 -2 3 46 c2 44 -1 50 -47 99 -27 29
-54 63 -61 75 -17 33 -13 78 9 104 l19 24 1 -22 c0 -40 20 -36 20 4 0 41 28
111 51 129 8 7 23 14 34 17 42 10 172 6 222 -7z m6 -582 c114 -26 189 -72 223
-136 18 -34 18 -106 0 -183 -8 -33 -13 -61 -11 -63 11 -11 44 23 50 50 11 50
42 106 70 124 48 31 58 -9 25 -99 -24 -65 -50 -91 -79 -82 -25 8 -26 -1 -5
-51 17 -41 13 -138 -8 -179 -13 -25 -59 -75 -70 -75 -21 0 -6 65 23 101 28 35
48 88 49 127 0 23 -18 12 -28 -16 -22 -65 -138 -159 -278 -228 -58 -28 -110
-28 -134 1 -10 12 -16 12 -26 4 -22 -18 -78 20 -82 56 -2 17 -14 87 -28 158
-31 162 -31 235 -1 297 26 56 57 82 57 49 0 -18 5 -21 35 -17 32 4 35 2 36
-22 l0 -25 12 23 c8 18 8 35 -2 70 -7 26 -16 51 -20 55 -4 4 -31 9 -59 10 -29
1 -52 3 -52 5 0 14 25 45 43 52 36 15 183 11 260 -6z m-233 -94 c11 -7 7 -10
-17 -10 -17 0 -33 -6 -36 -12 -2 -7 -8 -10 -12 -6 -11 10 14 38 34 38 9 0 23
-5 31 -10z m396 -599 c-17 -48 -52 -99 -130 -193 -63 -76 -95 -96 -157 -100
-42 -3 -43 -3 -60 43 -22 57 -36 144 -22 136 6 -4 13 -29 16 -57 9 -79 26 -97
27 -29 0 66 7 71 71 58 24 -4 47 -8 52 -9 4 0 28 19 53 42 l46 42 -8 -38 c-10
-54 10 -39 26 19 11 40 86 142 96 132 2 -2 -2 -23 -10 -46z m174 -28 c0 -39
-184 -186 -275 -220 -24 -8 126 155 197 215 40 33 53 40 64 31 8 -6 14 -18 14
-26z m-594 -108 c7 -19 14 -45 13 -57 0 -17 -7 -10 -24 26 -21 44 -24 66 -9
66 3 0 12 -16 20 -35z m-37 -62 c23 -38 51 -80 63 -95 l21 -27 -52 -76 c-67
-96 -123 -219 -161 -347 -16 -56 -35 -105 -42 -110 -21 -15 -175 -2 -203 16
-21 14 -25 24 -25 69 0 68 30 181 64 244 15 27 61 93 102 148 100 133 98 150
-5 45 -41 -42 -44 -43 -37 -17 15 63 -34 6 -89 -103 -43 -86 -37 -84 -127 -37
-44 23 -83 47 -85 54 -12 32 101 174 154 194 46 17 154 37 238 44 44 3 91 9
105 11 23 5 24 6 7 19 -18 13 -18 14 0 24 10 6 21 11 24 11 4 0 25 -30 48 -67z
m-533 -319 c49 -23 104 -68 104 -85 0 -18 -18 -17 -46 2 -32 22 -91 49 -107
49 -5 0 15 -17 46 -37 31 -20 59 -44 62 -52 5 -13 3 -12 -12 1 -32 28 -142 78
-171 78 -16 0 -31 3 -35 6 -8 9 19 61 35 67 21 9 69 -3 124 -29z m1098 21
c156 -41 274 -176 312 -358 14 -68 12 -141 -6 -152 -4 -2 -10 25 -13 61 -8
101 -25 101 -23 0 1 -56 -3 -89 -11 -97 -11 -11 -13 -9 -13 9 0 54 -34 182
-63 235 -46 88 -140 169 -227 197 -76 24 -104 45 -79 60 15 10 75 4 123 -11
16 -5 31 -7 34 -4 6 6 -42 24 -103 38 -59 13 -59 13 -50 26 9 15 51 14 119 -4z
m-213 -52 c8 -9 38 -31 67 -50 48 -31 66 -53 42 -53 -16 0 -63 23 -120 59 -30
20 -57 36 -59 37 -1 2 0 7 4 13 10 17 51 13 66 -6z m-22 -81 c25 -15 62 -34
81 -42 45 -17 60 -29 60 -46 0 -21 -24 -17 -98 17 -108 50 -135 69 -121 85 16
20 25 18 78 -14z m-985 10 c3 -5 -13 -26 -35 -48 -43 -42 -71 -82 -88 -127
-16 -40 2 -33 27 12 29 51 105 118 143 126 68 15 131 -29 145 -100 10 -55 -2
-79 -53 -113 -27 -17 -60 -41 -75 -53 l-27 -22 -86 31 c-48 18 -101 32 -119
32 -37 0 -96 -34 -96 -55 0 -20 9 -19 33 3 14 12 34 16 72 15 115 -4 322 -145
384 -260 13 -26 7 -28 -35 -13 -16 5 -55 13 -87 18 -73 11 -71 -4 3 -28 129
-40 197 -95 188 -152 -4 -31 -156 -97 -242 -105 -58 -5 -70 -3 -133 27 l-68
33 50 12 c29 7 44 14 35 17 -28 11 -245 48 -278 48 -30 0 -35 5 -53 46 l-21
46 22 81 c70 258 259 536 367 537 12 0 24 -4 27 -8z m1234 -56 c29 -15 98 -85
126 -126 23 -35 21 -87 -4 -102 -29 -19 -24 -28 13 -26 32 3 32 3 35 -46 7
-106 -26 -144 -213 -252 -100 -57 -207 -131 -213 -146 -6 -14 -20 -9 -24 10
-3 13 -8 10 -21 -15 -10 -18 -25 -36 -35 -41 -18 -10 -139 0 -229 19 -70 14
-194 76 -274 136 -154 117 -143 136 30 52 113 -54 172 -64 81 -13 -30 17 -87
49 -127 72 -39 23 -95 50 -123 61 -50 19 -150 103 -150 127 0 6 21 25 46 44
46 32 47 33 128 26 44 -3 121 -17 171 -31 100 -28 105 -29 105 -16 0 5 -15 15
-32 22 l-32 13 34 8 c19 4 87 8 150 10 134 3 176 -10 254 -82 49 -45 55 -63
30 -91 -25 -27 1 -32 32 -6 34 30 29 55 -25 128 -22 29 -38 56 -35 61 3 4 22
8 43 8 31 0 49 9 97 50 91 77 104 93 104 121 0 42 14 48 58 25z m-274 -40
c100 -44 108 -52 77 -77 -32 -26 -69 -24 -97 6 -12 13 -43 30 -68 36 -55 14
-64 24 -40 50 23 26 37 24 128 -15z m-119 -69 c60 -23 82 -51 50 -63 -23 -9
-165 16 -165 29 0 12 40 57 50 57 3 0 33 -10 65 -23z"/>
<path d="M1950 3075 c0 -28 24 -44 80 -50 33 -4 81 -17 106 -30 52 -27 64 -18
30 22 -18 21 -40 33 -78 41 -85 18 -138 24 -138 17z"/>
<path d="M1989 3018 c-12 -51 2 -94 17 -53 10 25 37 19 29 -6 -6 -19 -4 -21
24 -17 17 2 32 0 34 -5 4 -14 49 2 45 16 -6 19 -145 79 -149 65z"/>
<path d="M1750 2979 c0 -13 41 -22 52 -11 6 6 -1 11 -21 14 -17 3 -31 1 -31
-3z"/>
<path d="M2010 2930 c0 -15 46 -34 64 -27 9 4 16 11 16 16 0 6 -6 8 -13 5 -8
-3 -26 0 -40 5 -18 7 -27 7 -27 1z"/>
<path d="M2352 2912 c-42 -42 -63 -108 -23 -69 11 10 11 8 2 -10 -6 -13 -8
-23 -3 -23 16 0 32 24 32 48 0 13 4 21 9 17 13 -8 25 35 13 47 -7 7 -17 3 -30
-10z"/>
<path d="M1792 2850 c-29 -39 -28 -48 11 -82 32 -29 24 -33 -25 -13 -30 12
-21 -20 17 -61 19 -20 39 -34 43 -30 4 4 -1 12 -11 17 -9 6 -17 17 -17 25 0
16 32 14 119 -8 40 -10 42 -13 25 -25 -10 -7 -26 -13 -36 -13 -10 0 -18 -4
-18 -10 0 -19 45 -10 98 20 36 21 52 37 52 51 0 16 -3 18 -19 9 -22 -11 -73
-13 -120 -4 -30 6 -31 8 -16 24 10 11 24 16 36 13 11 -3 28 2 39 12 20 18 20
18 -2 42 -21 22 -48 31 -48 15 0 -4 5 -13 11 -19 7 -7 9 -20 5 -30 -7 -16 -8
-17 -17 -1 -7 14 -14 14 -44 5 -29 -9 -38 -7 -55 8 -18 16 -18 20 -5 51 17 42
6 44 -23 4z"/>
<path d="M1731 2786 c-12 -14 -5 -46 9 -46 4 0 10 14 12 30 5 32 -3 38 -21 16z"/>
<path d="M2020 2782 c0 -5 11 -19 25 -32 15 -14 25 -35 25 -52 0 -38 15 -36
29 5 11 30 10 34 -19 60 -29 26 -60 36 -60 19z"/>
<path d="M1809 2626 c25 -30 47 -36 80 -25 42 15 39 25 -6 25 -21 -1 -49 3
-63 8 -23 8 -24 7 -11 -8z"/>
<path d="M1794 2555 c-18 -14 -17 -15 16 -10 19 4 48 2 63 -4 18 -7 27 -7 27
-1 0 12 -42 30 -69 30 -9 0 -26 -7 -37 -15z"/>
<path d="M1578 3423 c7 -3 16 -2 19 1 4 3 -2 6 -13 5 -11 0 -14 -3 -6 -6z"/>
<path d="M1538 3413 c7 -3 16 -2 19 1 4 3 -2 6 -13 5 -11 0 -14 -3 -6 -6z"/>
<path d="M1430 3380 c-8 -5 -10 -10 -5 -10 6 0 17 5 25 10 8 5 11 10 5 10 -5
0 -17 -5 -25 -10z"/>
<path d="M1328 3334 c-38 -19 -68 -37 -68 -39 0 -5 139 62 149 71 14 13 -23
-2 -81 -32z"/>
<path d="M1224 3274 c-18 -14 -18 -15 4 -4 12 6 22 13 22 15 0 8 -5 6 -26 -11z"/>
<path d="M1108 3196 c-31 -25 -59 -50 -63 -57 -6 -9 88 63 120 92 25 24 -6 4
-57 -35z"/>
<path d="M984 3088 c-70 -76 -98 -108 -93 -108 3 0 36 34 73 75 72 80 86 103
20 33z"/>
<path d="M2845 3058 c37 -43 70 -78 73 -78 6 0 -92 112 -119 135 -13 11 8 -15
46 -57z"/>
<path d="M869 2953 c-13 -16 -12 -17 4 -4 9 7 17 15 17 17 0 8 -8 3 -21 -13z"/>
<path d="M2920 2966 c0 -2 8 -10 18 -17 15 -13 16 -12 3 4 -13 16 -21 21 -21
13z"/>
<path d="M839 2913 c-13 -16 -12 -17 4 -4 9 7 17 15 17 17 0 8 -8 3 -21 -13z"/>
<path d="M2950 2926 c0 -2 8 -10 18 -17 15 -13 16 -12 3 4 -13 16 -21 21 -21
13z"/>
<path d="M814 2878 c-4 -7 -14 -24 -22 -38 -14 -24 -13 -24 3 -5 20 24 37 55
31 55 -3 0 -8 -6 -12 -12z"/>
<path d="M2989 2875 c5 -11 17 -29 26 -40 l16 -20 -10 20 c-5 11 -17 29 -26
40 l-16 20 10 -20z"/>
<path d="M740 2749 c-12 -23 -20 -43 -18 -45 3 -2 14 17 26 41 27 56 20 60 -8
4z"/>
<path d="M3062 2745 c12 -24 23 -43 26 -41 4 5 -36 86 -43 86 -3 0 5 -20 17
-45z"/>
<path d="M696 2655 c-9 -26 -7 -32 5 -12 6 10 9 21 6 23 -2 3 -7 -2 -11 -11z"/>
<path d="M3100 2665 c0 -5 5 -17 10 -25 5 -8 10 -10 10 -5 0 6 -5 17 -10 25
-5 8 -10 11 -10 5z"/>
<path d="M641 2484 c0 -11 3 -14 6 -6 3 7 2 16 -1 19 -3 4 -6 -2 -5 -13z"/>
<path d="M3161 2484 c0 -11 3 -14 6 -6 3 7 2 16 -1 19 -3 4 -6 -2 -5 -13z"/>
<path d="M631 2444 c0 -11 3 -14 6 -6 3 7 2 16 -1 19 -3 4 -6 -2 -5 -13z"/>
<path d="M3171 2444 c0 -11 3 -14 6 -6 3 7 2 16 -1 19 -3 4 -6 -2 -5 -13z"/>
<path d="M622 2390 c0 -14 2 -19 5 -12 2 6 2 18 0 25 -3 6 -5 1 -5 -13z"/>
<path d="M3182 2390 c0 -14 2 -19 5 -12 2 6 2 18 0 25 -3 6 -5 1 -5 -13z"/>
<path d="M612 2325 c0 -16 2 -22 5 -12 2 9 2 23 0 30 -3 6 -5 -1 -5 -18z"/>
<path d="M3192 2325 c0 -16 2 -22 5 -12 2 9 2 23 0 30 -3 6 -5 -1 -5 -18z"/>
<path d="M604 2155 c0 -66 1 -92 3 -57 2 34 2 88 0 120 -2 31 -3 3 -3 -63z"/>
<path d="M3204 2150 c0 -63 1 -89 3 -57 2 31 2 83 0 115 -2 31 -3 5 -3 -58z"/>
<path d="M1841 2047 c-9 -11 -8 -17 3 -26 18 -15 48 -3 44 18 -4 21 -32 26
-47 8z"/>
<path d="M612 1985 c0 -16 2 -22 5 -12 2 9 2 23 0 30 -3 6 -5 -1 -5 -18z"/>
<path d="M3192 1980 c0 -19 2 -27 5 -17 2 9 2 25 0 35 -3 9 -5 1 -5 -18z"/>
<path d="M622 1920 c0 -14 2 -19 5 -12 2 6 2 18 0 25 -3 6 -5 1 -5 -13z"/>
<path d="M3182 1920 c0 -14 2 -19 5 -12 2 6 2 18 0 25 -3 6 -5 1 -5 -13z"/>
<path d="M631 1864 c0 -11 3 -14 6 -6 3 7 2 16 -1 19 -3 4 -6 -2 -5 -13z"/>
<path d="M1747 1873 c-12 -12 -7 -31 10 -37 9 -4 23 0 32 9 14 14 14 17 1 25
-18 11 -34 13 -43 3z"/>
<path d="M3171 1864 c0 -11 3 -14 6 -6 3 7 2 16 -1 19 -3 4 -6 -2 -5 -13z"/>
<path d="M641 1824 c0 -11 3 -14 6 -6 3 7 2 16 -1 19 -3 4 -6 -2 -5 -13z"/>
<path d="M3161 1824 c0 -11 3 -14 6 -6 3 7 2 16 -1 19 -3 4 -6 -2 -5 -13z"/>
<path d="M1687 1713 c-24 -23 12 -55 38 -33 12 10 13 16 4 26 -12 15 -31 18
-42 7z"/>
<path d="M690 1675 c0 -5 5 -17 10 -25 5 -8 10 -10 10 -5 0 6 -5 17 -10 25 -5
8 -10 11 -10 5z"/>
<path d="M3106 1665 c-9 -26 -7 -32 5 -12 6 10 9 21 6 23 -2 3 -7 -2 -11 -11z"/>
<path d="M3057 1555 c-15 -30 -25 -55 -22 -55 7 0 57 101 53 106 -2 2 -16 -21
-31 -51z"/>
<path d="M3010 1470 c-6 -11 -8 -20 -6 -20 3 0 10 9 16 20 6 11 8 20 6 20 -3
0 -10 -9 -16 -20z"/>
<path d="M2921 1343 c-30 -38 -42 -58 -29 -45 24 22 93 112 86 112 -2 0 -28
-30 -57 -67z"/>
<path d="M1370 955 c14 -8 30 -14 35 -14 6 0 -1 6 -15 14 -14 8 -29 14 -35 14
-5 0 1 -6 15 -14z"/>
<path d="M1430 930 c8 -5 20 -10 25 -10 6 0 3 5 -5 10 -8 5 -19 10 -25 10 -5
0 -3 -5 5 -10z"/>
<path d="M1538 893 c7 -3 16 -2 19 1 4 3 -2 6 -13 5 -11 0 -14 -3 -6 -6z"/>
<path d="M1658 863 c6 -2 18 -2 25 0 6 3 1 5 -13 5 -14 0 -19 -2 -12 -5z"/>
<path d="M1723 853 c9 -2 23 -2 30 0 6 3 -1 5 -18 5 -16 0 -22 -2 -12 -5z"/>
<path d="M2078 853 c7 -3 16 -2 19 1 4 3 -2 6 -13 5 -11 0 -14 -3 -6 -6z"/>
<path d="M1843 843 c31 -2 83 -2 115 0 31 2 5 3 -58 3 -63 0 -89 -1 -57 -3z"/>
</g>
</svg>
